<?xml version="1.0" encoding="utf-8"?>
<!-- Generator: Adobe Illustrator 17.0.0, SVG Export Plug-In . SVG Version: 6.00 Build 0)  -->
<!DOCTYPE svg PUBLIC "-//W3C//DTD SVG 1.1//EN" "http://www.w3.org/Graphics/SVG/1.1/DTD/svg11.dtd">
<svg version="1.1" id="Layer_1" xmlns="http://www.w3.org/2000/svg" xmlns:xlink="http://www.w3.org/1999/xlink" x="0px" y="0px"
	 width="3795.6px" height="405.1px" viewBox="1811.9 71 3795.6 405.1" style="enable-background:new 1811.9 71 3795.6 405.1;"
	 xml:space="preserve">
<g id="social-container_1_">
	<path id="social-container" style="fill:#FFFFFF;fill-opacity:0;" d="M1811.9,71h3795.6v405.1H1811.9V71z"/>
	<a xlink:href="http://plnkr.co/users/rafszul/" >
		
			<radialGradient id="plnkr.svg_1_" cx="1554.1593" cy="-98.3139" r="2219.7664" gradientTransform="matrix(2.3018 0 0 2.3018 246.2281 67.6736)" gradientUnits="userSpaceOnUse">
			<stop  offset="0" style="stop-color:#FFA500"/>
			<stop  offset="0" style="stop-color:#FF0000"/>
			<stop  offset="0" style="stop-color:#FFFF00;stop-opacity:0"/>
			<stop  offset="0" style="stop-color:#800080"/>
			<stop  offset="0" style="stop-color:#0000FF"/>
		</radialGradient>
		<path id="plnkr.svg" style="fill:url(#plnkr.svg_1_);" d="M3709,437.4c-39.4,0-78.1,0-117.5,0c-30.7,0-46.7-15.3-46.7-46.7
			c0-73,0-145.3,0-218.2c0-9.5,0-19,1.5-28.5c2.2-19.7,16.1-32.1,35.8-34.3c2.9,0,6.6-0.7,9.5-0.7c78.8,0,157.7,0,235.8,0
			c24.1,0,39.4,10.2,43.8,30.7c1.5,5.1,1.5,10.2,1.5,15.3c0,79.6,0,159.1,0,238.7c0,28.5-15.3,44.5-43.8,44.5
			C3789.3,437.4,3749.2,437.4,3709,437.4 M3850.6,273.9c0-39.4,0-78.1,0-117.5c0-19.7-5.1-24.8-24.8-24.8c-77.4,0-154.7,0-232.1,0
			c-2.2,0-5.1,0-7.3,0c-10.2,0.7-16.1,5.8-17.5,16.8c-0.7,3.6-0.7,8-0.7,11.7c0,38.7,0,77.4,0,116.1c0,37.2,0,75.2,0,112.4
			c0,20.4,5.1,25.5,24.8,25.5c78.1,0,155.5,0,233.6,0c19,0,23.4-5.1,23.4-24.1C3850.6,352,3850.6,312.6,3850.6,273.9 M3707.6,388.5
			c-24.1-24.1-47.4-47.4-70.8-70.8c-8-8-19.7-15.3-23.4-24.8c-2.9-7.3-2.9-35-2.9-35s0,0,0-27.7c24.1,24.1,50.4,50.4,73.7,73.7
			c0,0,0-96.4,0-143.1c16.1,0,30.7,0,46.7,0c0,46,0,94.9,0,142.3c24.1-24.1,49.6-51.8,72.3-74.5v44.5c-0.7,16.1-3.6,25.5-15.3,36.5
			C3760.9,333.8,3735.3,360.8,3707.6,388.5"/>
	</a>
	<a xlink:href="https://github.com/rafszul/" >
		
			<radialGradient id="github.svg_1_" cx="1554.1593" cy="-98.3139" r="2219.7664" gradientTransform="matrix(2.3018 0 0 2.3018 246.2281 67.6736)" gradientUnits="userSpaceOnUse">
			<stop  offset="0" style="stop-color:#FFA500"/>
			<stop  offset="0" style="stop-color:#FF0000"/>
			<stop  offset="0" style="stop-color:#FFFF00;stop-opacity:0"/>
			<stop  offset="0" style="stop-color:#800080"/>
			<stop  offset="0" style="stop-color:#0000FF"/>
		</radialGradient>
		<path id="github.svg" style="fill:url(#github.svg_1_);" d="M4471.8,154.9c0-5.1,0-10.2-1.5-15.3c-5.1-20.4-19.7-30.7-43.8-30.7
			c-78.8,0-157.7,0-235.8,0c-2.9,0-6.6,0-9.5,0.7c-19.7,2.2-33.6,14.6-35.8,34.3c-1.5,9.5-1.5,19-1.5,28.5c0,73,0,145.3,0,218.2
			c0,31.4,15.3,46.7,46.7,46.7c39.4,0,78.1,0,117.5,0c40.1,0,80.3,0,120.4,0c28.5,0,43.8-15.3,43.8-44.5
			C4471.8,314.1,4471.8,234.5,4471.8,154.9 M4413.4,414.8c-7.3,0-57.7,0-57.7,0s-4.4-0.7-4.4-4.4c0-10.9,0-21.9,0-32.1
			c0-12.4,0-24.8-9.5-35c5.8-0.7,10.9-1.5,15.3-2.9c32.1-7.3,49.6-27.7,51.1-62c0.7-17.5-2.2-32.8-13.1-46.7
			c-0.7-0.7-0.7-2.9-0.7-4.4c2.9-10.9,2.2-21.9-1.5-33.6c-0.7-2.9-2.2-3.6-5.1-3.6c-9.5,0.7-18.2,3.6-26.3,8.8
			c-7.3,5.1-14.6,5.8-23.4,4.4c-19.7-4.4-38.7-2.9-58.4,1.5c-2.2,0.7-5.1,0-7.3-1.5c-8.8-5.1-18.2-10.2-28.5-12.4
			c-8-1.5-8.8-1.5-10.9,6.6c-2.9,10.2-2.9,19.7,0,29.9c0.7,1.5,0,3.6-0.7,5.1c-21.2,24.1-13.9,69.3,0.7,86.9
			c10.9,13.1,26.3,19.7,43.1,22.6c2.9,0.7,5.8,0.7,8.8,1.5c-2.2,6.6-4.4,12.4-7.3,18.2c-0.7,1.5-2.2,2.2-3.6,2.9
			c-16.1,6.6-29.9,1.5-39.4-13.1c-5.1-8-7.3-13.1-16.8-15.3c0,0-5.1-1.5-5.8-0.7c-2.9,0.7-4.4,2.2-7.3,2.9c1.5,2.2,2.2,4.4,4.4,5.8
			c8,5.1,13.1,12.4,16.8,21.2c5.1,13.1,16.1,19.7,29.9,20.4c6.6,0.7,13.1,0,21.2,0c0,8,0,18.2,0,27.7c0,2.9-4.4,2.9-4.4,2.9
			c-33.6,0-65.7,0-72.3,0c-27,0-34.3-8-34.3-35.8c0-64.2,0-130.7,0-194.9c0-8.8-0.7-16.8,0-25.5c0.7-18.2,8.8-26.3,29.2-27
			c2.9,0,7.3,0,10.2,0c69.3,0,136.5,0,205.8,0c21.2,0,37.2,4.4,38,24.8v13c0,70.1,0,136.5,0,205.8
			C4448.5,405.3,4447.7,414.8,4413.4,414.8 M4276.9,369.5c-0.7,0.7-2.2,2.2-3.6,2.9c-0.7-1.5-1.5-2.2-2.2-2.9
			c1.5-0.7,2.2-2.2,3.6-2.2C4274.7,367.3,4276.2,368.8,4276.9,369.5 M4265.2,371c-0.7,0.7-2.2,2.2-2.9,2.2s-2.9-0.7-2.9-2.2
			s1.5-0.7,2.2-2.2C4263.8,370.3,4264.5,370.3,4265.2,371 M4254.3,368.8c-1.5,1.5-2.9,2.2-2.9,2.2c-1.5-0.7-2.9-1.5-3.6-2.2
			c0.7-0.7,1.5-2.2,2.2-2.2C4250.6,367.3,4252.1,368.1,4254.3,368.8 M4242.6,363.7c0,0-0.7,1.5-2.2,2.9c-1.5-2.2-2.2-2.9-2.9-4.4
			l1.5-2.2C4240.4,361.5,4241.9,362.2,4242.6,363.7"/>
	</a>
	<a xlink:href="http://wearetheplaymakers.tumblr.com/" >
		
			<radialGradient id="tumblr.svg_1_" cx="1554.1593" cy="-98.3139" r="2219.7664" gradientTransform="matrix(2.3018 0 0 2.3018 246.2281 67.6736)" gradientUnits="userSpaceOnUse">
			<stop  offset="0" style="stop-color:#FFA500"/>
			<stop  offset="0" style="stop-color:#FF0000"/>
			<stop  offset="0" style="stop-color:#FFFF00;stop-opacity:0"/>
			<stop  offset="0" style="stop-color:#800080"/>
			<stop  offset="0" style="stop-color:#0000FF"/>
		</radialGradient>
		<path id="tumblr.svg" style="fill:url(#tumblr.svg_1_);" d="M5069.6,154.9c0-5.1,0-10.2-1.5-15.3c-5.1-20.4-19.7-30.7-43.8-30.7
			c-78.8,0-157.7,0-235.8,0c-2.9,0-6.6,0-9.5,0.7c-19.7,2.2-33.6,14.6-35.8,34.3c-1.5,9.5-1.5,19-1.5,28.5c0,73,0,145.3,0,218.2
			c0,31.4,15.3,46.7,46.7,46.7c39.4,0,78.1,0,117.5,0c40.1,0,80.3,0,120.4,0c28.5,0,43.8-15.3,43.8-44.5
			C5069.6,314.1,5069.6,234.5,5069.6,154.9 M5046.3,390.7c0,19-4.4,24.1-23.4,24.1c-78.1,0-155.5,0-233.6,0
			c-19.7,0-24.8-5.1-24.8-25.5c0-37.2,0-75.2,0-112.4c0-38.7,0-77.4,0-116.1c0-3.6,0-8,0.7-11.7c1.5-10.2,6.6-15.3,17.5-16.8
			c2.2,0,5.1,0,7.3,0c77.4,0,154.7,0,232.1,0c19.7,0,24.8,5.1,24.8,24.8c0,39.4,0,78.1,0,117.5
			C5046.3,312.6,5046.3,352,5046.3,390.7 M4975.5,341.1c0,10.9,0,21.9,0,32.8c0,1.5,0,1.5-1.5,2.2c-17.5,8.8-35.8,12.4-55.5,11.7
			c-11.7-0.7-23.4-2.9-34.3-8.8c-4.4-2.9-8.8-5.8-12.4-9.5c-6.6-6.6-10.2-14.6-10.9-24.1c0-4.4-0.7-8.8-0.7-13.1
			c0-25.5,0-50.4,0-75.9c0-0.7,0-1.5,0-2.9c-8.8,0-16.8,0-24.8,0c0-0.7,0-1.5,0-2.2c0-9.5,0-19,0-29.2c0-1.5,0-1.5,1.5-2.2
			c24.1-8,38-25.5,43.1-49.6c0-1.5,0.7-3.6,0.7-5.1s0.7-3.6,0.7-5.1c10.9,0,21.2,0,32.1,0c0,19,0,38,0,57.7c18.2,0,35.8,0,54,0
			c0,11.7,0,24.1,0,35.8c-17.5,0-35.8,0-54,0c0,0.7,0,0.7,0,1.5c0,21.2,0,43.1,0,64.2c0,4.4,0.7,9.5,0.7,13.9
			c0.7,5.8,3.6,9.5,8,12.4c7.3,4.4,14.6,5.1,22.6,4.4c9.5-0.7,19-4.4,27-9.5c0.7-0.7,1.5-0.7,2.2-1.5
			C4975.5,340.3,4975.5,340.3,4975.5,341.1"/>
	</a>
	<a xlink:href="http://codepen.io/rafszul/" >
		
			<radialGradient id="codepen.svg_1_" cx="1554.1593" cy="-98.3139" r="2219.7664" gradientTransform="matrix(2.3018 0 0 2.3018 246.2281 67.6736)" gradientUnits="userSpaceOnUse">
			<stop  offset="0" style="stop-color:#FFA500"/>
			<stop  offset="0" style="stop-color:#FF0000"/>
			<stop  offset="0" style="stop-color:#FFFF00;stop-opacity:0"/>
			<stop  offset="0" style="stop-color:#800080"/>
			<stop  offset="0" style="stop-color:#0000FF"/>
		</radialGradient>
		<path id="codepen.svg" style="fill:url(#codepen.svg_1_);" d="M3111.2,437.4c-39.4,0-78.1,0-117.5,0c-30.7,0-46.7-15.3-46.7-46.7
			c0-73,0-145.3,0-218.2c0-9.5,0-19,1.5-28.5c2.2-19.7,16.1-32.1,35.8-34.3c2.9,0,6.6-0.7,9.5-0.7c78.8,0,157.7,0,235.8,0
			c24.1,0,39.4,10.2,43.8,30.7c1.5,5.1,1.5,10.2,1.5,15.3c0,79.6,0,159.1,0,238.7c0,28.5-15.3,44.5-43.8,44.5
			C3191.5,437.4,3151.4,437.4,3111.2,437.4 M3252.8,273.9c0-39.4,0-78.1,0-117.5c0-19.7-5.1-24.8-24.8-24.8c-77.4,0-154.7,0-232.1,0
			c-2.2,0-5.1,0-7.3,0c-10.2,0.7-16.1,5.8-17.5,16.8c-0.7,3.6-0.7,8-0.7,11.7c0,38.7,0,77.4,0,116.1c0,37.2,0,75.2,0,112.4
			c0,20.4,5.1,25.5,24.8,25.5c78.1,0,155.5,0,233.6,0c19,0,23.4-5.1,23.4-24.1C3252.8,352,3252.8,312.6,3252.8,273.9 M3119.3,162.2
			c-5.8-4.4-13.9-3.6-20.4,0l-90.5,62.8c-5.1,3.6-8,8.8-8,14.6v67.9c0,5.8,2.9,11.7,8,15.3l92,60.6c5.8,3.6,13.9,3.6,19.7,0l93.4-62
			c5.1-3.6,8-8.8,8-15.3v-66.4c0-5.8-2.9-11.7-8-15.3L3119.3,162.2 M3189.3,236l-34.3,23.4l-32.8-23.4v-46.7L3189.3,236
			 M3098.8,189.2v45.3l-33.6,23.4l-33.6-22.6L3098.8,189.2 M3022.9,257.9l21.2,14.6l-21.2,15.3V257.9 M3098.8,354.9l-67.2-45.3
			l33.6-23.4l33.6,22.6L3098.8,354.9 M3086.4,272.5l21.9-15.3l25.5,16.8l-22.6,15.3L3086.4,272.5 M3122.9,354.9v-46l32.1-21.2
			l34.3,22.6L3122.9,354.9 M3198.8,288.5l-22.6-15.3l22.6-15.3V288.5"/>
	</a>
	<a xlink:href="http://twitter.com/rafszul/" >
		
			<radialGradient id="twitter.svg_1_" cx="1554.1593" cy="-98.3139" r="2219.7664" gradientTransform="matrix(2.3018 0 0 2.3018 246.2281 67.6736)" gradientUnits="userSpaceOnUse">
			<stop  offset="0" style="stop-color:#FFA500"/>
			<stop  offset="0" style="stop-color:#FF0000"/>
			<stop  offset="0" style="stop-color:#FFFF00;stop-opacity:0"/>
			<stop  offset="0" style="stop-color:#800080"/>
			<stop  offset="0" style="stop-color:#0000FF"/>
		</radialGradient>
		<path id="twitter.svg" style="fill:url(#twitter.svg_1_);" d="M2513.4,437.4c-39.4,0-78.1,0-117.5,0c-30.7,0-46.7-15.3-46.7-46.7
			c0-73,0-145.3,0-218.2c0-9.5,0-19,1.5-28.5c2.2-19.7,16.1-32.1,35.8-34.3c2.9,0,6.6-0.7,9.5-0.7c78.8,0,157.7,0,235.8,0
			c24.1,0,39.4,10.2,43.8,30.7c1.5,5.1,1.5,10.2,1.5,15.3c0,79.6,0,159.1,0,238.7c0,28.5-15.3,44.5-43.8,44.5
			C2593.7,437.4,2553.6,437.4,2513.4,437.4 M2655,273.9c0-39.4,0-78.1,0-117.5c0-19.7-5.1-24.8-24.8-24.8c-77.4,0-154.7,0-232.1,0
			c-2.2,0-5.1,0-7.3,0c-10.2,0.7-16.1,5.8-17.5,16.8c-0.7,3.6-0.7,8-0.7,11.7c0,38.7,0,77.4,0,116.1c0,37.2,0,75.2,0,112.4
			c0,20.4,5.1,25.5,24.8,25.5c78.1,0,155.5,0,233.6,0c19,0,23.4-5.1,23.4-24.1C2655,352,2655,312.6,2655,273.9 M2610.5,211.9
			c-7.3,2.9-14.6,5.1-22.6,6.6c8-5.1,14.6-13.1,17.5-22.6c-8,4.4-16.1,8-25.5,9.5c-7.3-8-17.5-13.1-29.2-13.1
			c-21.9,0-39.4,18.2-39.4,40.9c0,2.9,0,6.6,0.7,9.5c-32.8-1.5-62-17.5-81.8-42.3c-3.6,5.8-5.1,13.1-5.1,20.4
			c0,13.9,7.3,26.3,17.5,33.6c-6.6,0-12.4-2.2-18.2-5.1v0.7c0,19.7,13.9,35.8,32.1,39.4c-3.6,0.7-6.6,1.5-10.2,1.5
			c-2.9,0-5.1,0-7.3-0.7c5.1,16.1,19.7,27.7,37.2,28.5c-13.9,10.9-30.7,17.5-48.9,17.5c-2.9,0-6.6,0-9.5-0.7
			c17.5,11.7,38.7,18.2,60.6,18.2c73,0,113.1-62,113.1-115.3V233C2598.8,227.2,2605.4,219.9,2610.5,211.9"/>
	</a>
</g>
</svg>
